<?xml version="1.0" encoding="UTF-8"?>
<svg id="Layer_1" data-name="Layer 1" xmlns="http://www.w3.org/2000/svg" viewBox="0 0 127.4 117.56">
  <defs>
    <style>
      .cls-1 {
        fill: #5aa5ff;
      }
    </style>
  </defs>
  <path class="cls-1" d="m5,0h122.39c-1.74,4.02-3.41,7.89-5.1,11.75-.88,2.01-1.77,4.02-2.71,6-2.84,6.02-7.57,9.17-14.26,9.17-24.1.02-48.21.01-72.31,0-.96,0-1.52.17-1.95,1.19-3.22,7.72-6.53,15.4-9.82,23.08-.08.18-.21.33-.49.74C13.95,36.91,7.22,22.03.45,7.06-1.05,3.75,1.37,0,5,0Z"/>
  <path class="cls-1" d="m39.23,116.34c-.71,1.61-2.99,1.62-3.71.02-.22-.49-.44-.97-.66-1.45-4.32-9.45-8.64-18.89-12.93-28.35-.21-.47-.32-1.16-.13-1.6,3.8-8.68,7.65-17.34,11.5-26,2.76-6.2,5.54-12.39,8.28-18.6.32-.73.73-.98,1.5-.98,9.79.01,19.58,0,29.36.01.27,0,.53.11.95.2-2.03,4.5-4.01,8.88-6.12,13.55h36.64c-1.17,2.6-2.2,4.88-3.24,7.16-1.57,3.42-3.2,6.81-4.71,10.26-1.91,4.38-5.05,7.43-9.57,8.99-1.2.42-2.47.58-3.74.59-8.47.07-16.94.11-25.41.03-1.72-.02-2.46.64-3.1,2.11-4.92,11.35-9.91,22.67-14.89,34,0,.01-.01.03-.02.04Z"/>
</svg>